<svg width="172" height="126" viewBox="0 0 172 126" fill="none" xmlns="http://www.w3.org/2000/svg">
<path d="M125.4 125.2C142.6 125.2 156.2 111.6 156.2 96.4C156.2 81.6 147 70.8 133 66.8C133.8 55.6 146.2 36.4 171.4 16.4L159.4 0.799985C109.4 29.6 93 64.8 93 88C93 112.8 108.2 125.2 125.4 125.2ZM33 125.2C50.2 125.2 63.8 111.6 63.8 96.4C63.8 81.6 54.6 70.8 40.6 66.8C41.4 55.6 53.8 36.4 79 16.4L67 0.799985C17 29.6 0.600001 64.8 0.600001 88C0.600001 112.8 15.8 125.2 33 125.2Z" fill="#FAFF00"/>
</svg>
