<svg xmlns="http://www.w3.org/2000/svg" width="1254" height="1256" viewBox="0 0 1254 1256"><g><g><path fill="#fff" fill-opacity=".1" d="M1254 628c0 346.832-280.72 628-627 628S0 974.832 0 628 280.72 0 627 0s627 281.168 627 628zm-952.739-30.835c2.897-87.945 18.108-172.072 43.614-249.856l-209.456-.239C92.946 421.514 66.813 506.507 61.96 597.165zm108.458-250.069c-27.813 78.035-44.178 161.998-47.275 250.069h233.933V347.096zM596.39 62.009c-65.91 59.007-121.55 135.258-161.754 223.216H596.39zM368.049 285.212c32.316-77.357 76.745-149.074 127.921-208.445-132.122 29.842-245.157 109.649-320.009 208.445zm823.991 311.953c-4.85-90.67-31-175.651-73.46-250.095l-209.48.239c25.519 77.784 40.73 161.911 43.627 249.856zm-534.43 0h233.946c-3.097-88.071-19.474-172.034-47.288-250.069H657.61zm161.766-311.953C779.16 197.255 723.52 121.003 657.61 61.996v223.216zM758.018 76.779c51.188 59.371 95.63 131.089 127.933 208.433h192.089c-74.84-98.796-187.863-178.603-320.022-208.433zM61.96 658.835c4.853 90.645 30.987 175.651 73.459 250.069l209.456-.226c-25.506-77.771-40.717-161.911-43.614-249.856h-239.3zm534.43 0H362.444c3.097 88.083 19.462 172.034 47.275 250.069H596.39zM434.624 970.788C474.84 1058.76 530.467 1135 596.377 1193.99V970.788zm61.346 208.432c-51.176-59.4-95.618-131.09-127.921-208.445H175.961c74.852 98.795 187.887 178.605 320.009 208.445zm456.744-520.385c-2.884 87.945-18.095 172.072-43.627 249.856l209.483.226c42.47-74.418 68.62-159.424 73.46-250.07H952.714zM657.61 908.904h186.671c27.813-78.035 44.178-161.986 47.288-250.069H657.61zm161.766 61.884H657.61v223.202c65.923-58.99 121.55-135.24 161.766-223.202zm66.575 0c-32.303 77.352-76.745 149.052-127.933 208.442 132.159-29.85 245.182-109.66 320.022-208.442z"/></g></g></svg>