<svg xmlns="http://www.w3.org/2000/svg" width="573" height="573" viewBox="0 0 573 573"><g><g><path fill="#038697" d="M148.35 374.073a7.147 7.147 0 0 0 7.15-7.152v-27.539a7.147 7.147 0 0 0-7.15-7.152 7.147 7.147 0 0 0-7.15 7.152v27.54a7.147 7.147 0 0 0 7.15 7.151z"/></g><g><path fill="#038697" d="M186.78 374.073a7.147 7.147 0 0 0 7.15-7.152v-27.539a7.147 7.147 0 0 0-7.15-7.152 7.147 7.147 0 0 0-7.15 7.152v27.54a7.147 7.147 0 0 0 7.15 7.151z"/></g><g><path fill="#038697" d="M225.21 374.073a7.147 7.147 0 0 0 7.15-7.152v-27.539a7.147 7.147 0 0 0-7.15-7.152 7.147 7.147 0 0 0-7.15 7.152v27.54a7.147 7.147 0 0 0 7.15 7.151z"/></g><g><path fill="#038697" d="M148.35 301.053a7.147 7.147 0 0 0 7.15-7.152v-27.539a7.147 7.147 0 0 0-7.15-7.152 7.147 7.147 0 0 0-7.15 7.152v27.54a7.147 7.147 0 0 0 7.15 7.151z"/></g><g><path fill="#038697" d="M186.78 301.053a7.147 7.147 0 0 0 7.15-7.152v-27.539a7.147 7.147 0 0 0-7.15-7.152 7.147 7.147 0 0 0-7.15 7.152v27.54a7.147 7.147 0 0 0 7.15 7.151z"/></g><g><path fill="#038697" d="M225.21 301.053a7.147 7.147 0 0 0 7.15-7.152v-27.539a7.147 7.147 0 0 0-7.15-7.152 7.147 7.147 0 0 0-7.15 7.152v27.54a7.147 7.147 0 0 0 7.15 7.151z"/></g><g><path fill="#038697" d="M148.35 228.033a7.147 7.147 0 0 0 7.15-7.152v-27.539a7.147 7.147 0 0 0-7.15-7.152 7.147 7.147 0 0 0-7.15 7.152v27.54a7.147 7.147 0 0 0 7.15 7.151z"/></g><g><path fill="#038697" d="M186.78 228.033a7.147 7.147 0 0 0 7.15-7.152v-27.539a7.147 7.147 0 0 0-7.15-7.152 7.147 7.147 0 0 0-7.15 7.152v27.54a7.147 7.147 0 0 0 7.15 7.151z"/></g><g><path fill="#038697" d="M225.21 228.033a7.147 7.147 0 0 0 7.15-7.152v-27.539a7.147 7.147 0 0 0-7.15-7.152 7.147 7.147 0 0 0-7.15 7.152v27.54a7.147 7.147 0 0 0 7.15 7.151z"/></g><g><path fill="#038697" d="M148.35 154.996a7.147 7.147 0 0 0 7.15-7.152v-27.532a7.147 7.147 0 0 0-7.15-7.152 7.147 7.147 0 0 0-7.15 7.152v27.532a7.147 7.147 0 0 0 7.15 7.152z"/></g><g><path fill="#038697" d="M186.78 154.996a7.147 7.147 0 0 0 7.15-7.152v-27.532a7.147 7.147 0 0 0-7.15-7.152 7.147 7.147 0 0 0-7.15 7.152v27.532a7.147 7.147 0 0 0 7.15 7.152z"/></g><g><path fill="#038697" d="M225.21 154.996a7.147 7.147 0 0 0 7.15-7.152v-27.532a7.147 7.147 0 0 0-7.15-7.152 7.147 7.147 0 0 0-7.15 7.152v27.532a7.147 7.147 0 0 0 7.15 7.152z"/></g><g><path fill="#038697" d="M346.35 445.73a7.147 7.147 0 0 0 7.15-7.152v-27.686a7.147 7.147 0 0 0-7.15-7.152 7.147 7.147 0 0 0-7.15 7.152v27.686a7.147 7.147 0 0 0 7.15 7.152z"/></g><g><path fill="#038697" d="M384.78 445.73a7.147 7.147 0 0 0 7.15-7.152v-27.686a7.147 7.147 0 0 0-7.15-7.152 7.147 7.147 0 0 0-7.15 7.152v27.686a7.147 7.147 0 0 0 7.15 7.152z"/></g><g><path fill="#038697" d="M423.21 445.73a7.147 7.147 0 0 0 7.15-7.152v-27.686a7.147 7.147 0 0 0-7.15-7.152 7.147 7.147 0 0 0-7.15 7.152v27.686a7.147 7.147 0 0 0 7.15 7.152z"/></g><g><path fill="#038697" d="M346.35 372.32a7.147 7.147 0 0 0 7.15-7.152v-27.686a7.147 7.147 0 0 0-7.15-7.152 7.147 7.147 0 0 0-7.15 7.152v27.686a7.147 7.147 0 0 0 7.15 7.152z"/></g><g><path fill="#038697" d="M384.78 372.32a7.147 7.147 0 0 0 7.15-7.152v-27.686a7.147 7.147 0 0 0-7.15-7.152 7.147 7.147 0 0 0-7.15 7.152v27.686a7.147 7.147 0 0 0 7.15 7.152z"/></g><g><path fill="#038697" d="M423.21 372.32a7.147 7.147 0 0 0 7.15-7.152v-27.686a7.147 7.147 0 0 0-7.15-7.152 7.147 7.147 0 0 0-7.15 7.152v27.686a7.147 7.147 0 0 0 7.15 7.152z"/></g><g><path fill="#038697" d="M346.35 298.903a7.147 7.147 0 0 0 7.15-7.152v-27.679a7.147 7.147 0 0 0-7.15-7.152 7.147 7.147 0 0 0-7.15 7.152v27.68a7.147 7.147 0 0 0 7.15 7.151z"/></g><g><path fill="#038697" d="M384.78 298.903a7.147 7.147 0 0 0 7.15-7.152v-27.679a7.147 7.147 0 0 0-7.15-7.152 7.147 7.147 0 0 0-7.15 7.152v27.68a7.147 7.147 0 0 0 7.15 7.151z"/></g><g><path fill="#038697" d="M423.21 298.903a7.147 7.147 0 0 0 7.15-7.152v-27.679a7.147 7.147 0 0 0-7.15-7.152 7.147 7.147 0 0 0-7.15 7.152v27.68a7.147 7.147 0 0 0 7.15 7.151z"/></g><g><path fill="#038697" d="M346.35 225.49a7.147 7.147 0 0 0 7.15-7.152v-27.686a7.147 7.147 0 0 0-7.15-7.152 7.147 7.147 0 0 0-7.15 7.152v27.686a7.147 7.147 0 0 0 7.15 7.152z"/></g><g><path fill="#038697" d="M384.78 225.49a7.147 7.147 0 0 0 7.15-7.152v-27.686a7.147 7.147 0 0 0-7.15-7.152 7.147 7.147 0 0 0-7.15 7.152v27.686a7.147 7.147 0 0 0 7.15 7.152z"/></g><g><path fill="#038697" d="M423.21 225.49a7.147 7.147 0 0 0 7.15-7.152v-27.686a7.147 7.147 0 0 0-7.15-7.152 7.147 7.147 0 0 0-7.15 7.152v27.686a7.147 7.147 0 0 0 7.15 7.152z"/></g><g><path fill="#038697" d="M565.352 558.379a7.146 7.146 0 0 1 7.15 7.152 7.147 7.147 0 0 1-7.15 7.152H7.652a7.147 7.147 0 0 1-7.15-7.152 7.146 7.146 0 0 1 7.15-7.152H35.22v-24.62H7.652a7.153 7.153 0 0 1-5.858-3.053 7.125 7.125 0 0 1-.859-6.544l14.199-38.993c-1.906-.348-3.621-1.419-4.703-3.067a7.138 7.138 0 0 1-.58-6.775l25.961-59.758a7.143 7.143 0 0 1 6.557-4.302 7.143 7.143 0 0 1 6.556 4.302l25.96 59.758a7.138 7.138 0 0 1-.579 6.775c-1.081 1.648-2.796 2.719-4.702 3.067l14.198 38.993a7.125 7.125 0 0 1-.858 6.544 7.153 7.153 0 0 1-5.859 3.053H49.52v24.62h47.718V83.965a7.147 7.147 0 0 1 4.147-6.489l164.792-76.29a7.12 7.12 0 0 1 6.85.461 7.15 7.15 0 0 1 3.303 6.027V558.38h19.942V78.3a7.153 7.153 0 0 1 9.922-6.593l162.718 68.552a7.155 7.155 0 0 1 4.378 6.593v411.527h50.196v-24.62h-27.566a7.151 7.151 0 0 1-5.858-3.053 7.124 7.124 0 0 1-.859-6.544l14.198-38.993c-1.906-.348-3.621-1.419-4.702-3.067a7.138 7.138 0 0 1-.58-6.775l25.961-59.758a7.143 7.143 0 0 1 6.556-4.302 7.144 7.144 0 0 1 6.557 4.302l25.961 59.758a7.138 7.138 0 0 1-.58 6.775c-1.081 1.648-2.796 2.719-4.703 3.067l14.199 38.993a7.124 7.124 0 0 1-.859 6.544 7.151 7.151 0 0 1-5.858 3.053h-27.567v24.62zM27.308 471.025H57.43l-15.061-34.664zm39.562 48.43l-12.425-34.126H30.293l-12.426 34.126zm149.982-25.347h-60.139v64.271h60.139zm45.177-475.245l-150.492 69.67v469.846h30.876v-71.423a7.147 7.147 0 0 1 7.15-7.152h74.439a7.147 7.147 0 0 1 7.15 7.152v71.423h30.877zm146.26 475.245H361.27v64.271h47.019zm50.7-342.506L310.57 89.07V558.38h36.4v-71.423a7.147 7.147 0 0 1 7.15-7.152h61.319a7.146 7.146 0 0 1 7.15 7.152v71.423h36.4zm56.585 319.423h30.123l-15.062-34.664zm39.563 48.43l-12.425-34.126h-24.153l-12.425 34.126z"/></g></g></svg>